# File created by Blade
# Date/Time:  Mon Sep 22 16:09:39 2014
# Frame Rate: 120.000 fps
#------------------------------------------------------
:FULLY-SPECIFIED
:DEGREES
1742
root 2.879525 37.029308 2.401093 1.644657 -1.909556 2.753527
RightUpLeg 6.568157 -6.144459 -4.059137
RightLeg -5.116063 -0.000000 0.000000
RightFoot -13.547435 -16.745809 15.852035
RightToeBase 14.397933 -0.000000 -0.000000
LeftUpLeg 3.791782 0.520098 0.227183
LeftLeg -1.770970 -0.000000 0.000000
LeftFoot -9.552825 13.100839 -17.135271
LeftToeBase 9.755297 -0.000000 -0.000000
Spine -1.088071 -2.799554 -0.986774
RightShoulder 2.553371 -17.290044 -8.550554
RightArm 17.136450 37.426781 83.378032
RightForeArm 93.784953 0.000000 84.693229
RightHand 16.668306 -0.000000 -15.282832
RightHandThumb1 -24.326973 -0.000000 -32.862282
LeftShoulder -21.704075 36.980934 -6.297369
LeftArm 39.564984 12.741576 -66.533553
LeftForeArm 18.748422 -0.000000 24.412899
LeftHand -13.384027 -0.000000 -9.708861
LeftHandThumb1 -26.253704 0.000000 33.147579
Head 8.443357 0.010327 1.086264
1743
root 2.891397 37.028964 2.404720 1.598455 -1.908476 2.773651
RightUpLeg 6.614810 -6.164850 -4.104852
RightLeg -5.103530 -0.000000 0.000000
RightFoot -13.574140 -16.716183 15.878890
RightToeBase 14.435032 -0.000000 -0.000000
LeftUpLeg 3.844488 0.495634 0.189667
LeftLeg -1.774304 -0.000000 0.000000
LeftFoot -9.557403 13.110995 -17.149997
LeftToeBase 9.721400 -0.000000 -0.000000
Spine -1.049010 -2.987336 -0.964878
RightShoulder 2.635644 -17.038754 -8.666163
RightArm 17.163423 38.017976 83.125721
RightForeArm 93.872398 0.000000 83.750396
RightHand 16.752232 -0.000000 -15.037684
RightHandThumb1 -24.326973 -0.000000 -32.862282
LeftShoulder -21.631643 37.038118 -6.278164
LeftArm 39.526193 12.817369 -66.394393
LeftForeArm 18.762123 -0.000000 24.606165
LeftHand -13.278688 -0.000000 -9.670086
LeftHandThumb1 -26.253704 0.000000 33.147579
Head 8.507331 0.103507 1.027927
1744
root 2.902508 37.028635 2.408500 1.553191 -1.900547 2.794571
RightUpLeg 6.659503 -6.227234 -4.147550
RightLeg -5.090478 -0.000000 0.000000
RightFoot -13.573141 -16.701701 15.831931
RightToeBase 14.440978 -0.000000 -0.000000
LeftUpLeg 3.894186 0.430054 0.151085
LeftLeg -1.774975 -0.000000 0.000000
LeftFoot -9.577591 13.148865 -17.175679
LeftToeBase 9.772069 -0.000000 -0.000000
Spine -1.018586 -3.178777 -0.953169
RightShoulder 2.748594 -16.812099 -8.780550
RightArm 17.203857 38.640598 82.841777
RightForeArm 94.068822 0.000000 82.756632
RightHand 16.939577 -0.000000 -14.911618
RightHandThumb1 -24.326973 -0.000000 -32.862282
LeftShoulder -21.505112 37.120239 -6.224910
LeftArm 39.461261 12.872834 -66.265547
LeftForeArm 18.696434 -0.000000 24.846756
LeftHand -13.204857 -0.000000 -9.850726
LeftHandThumb1 -26.253704 0.000000 33.147579
Head 8.584745 0.181340 0.991340
1745
root 2.916004 37.028208 2.408957 1.509279 -1.919823 2.833804
RightUpLeg 6.690455 -6.234967 -4.210038
RightLeg -5.078245 -0.000000 0.000000
RightFoot -13.563733 -16.709099 15.796410
RightToeBase 14.350950 -0.000000 -0.000000
LeftUpLeg 3.935851 0.389582 0.092900
LeftLeg -1.768295 -0.000000 0.000000
LeftFoot -9.577176 13.171003 -17.163944
LeftToeBase 9.776231 -0.000000 -0.000000
Spine -0.984815 -3.336220 -0.952150
RightShoulder 2.867169 -16.651183 -8.925100
RightArm 17.418912 39.318506 82.663088
RightForeArm 94.143616 -0.000000 81.680579
RightHand 17.017931 -0.000000 -14.736869
RightHandThumb1 -24.326973 -0.000000 -32.862282
LeftShoulder -21.348201 37.199353 -6.158270
LeftArm 39.422866 12.947072 -66.097473
LeftForeArm 18.679432 -0.000000 25.053674
LeftHand -13.191118 -0.000000 -9.972792
LeftHandThumb1 -26.253704 0.000000 33.147579
Head 8.664879 0.278365 0.935262
1746
root 2.930817 37.027718 2.409928 1.469497 -1.960542 2.869858
RightUpLeg 6.715912 -6.235536 -4.274706
RightLeg -5.066531 -0.000000 0.000000
RightFoot -13.574818 -16.678418 15.786278
RightToeBase 14.352714 -0.000000 -0.000000
LeftUpLeg 3.981117 0.400122 0.028599
LeftLeg -1.769783 -0.000000 0.000000
LeftFoot -9.582533 13.219391 -17.153275
LeftToeBase 9.731233 -0.000000 -0.000000
Spine -0.952136 -3.458307 -0.958267
RightShoulder 2.992712 -16.457157 -9.075878
RightArm 17.548759 39.906919 82.363567
RightForeArm 94.368462 0.000000 80.568288
RightHand 16.990395 -0.000000 -14.693727
RightHandThumb1 -24.326973 -0.000000 -32.862282
LeftShoulder -21.213129 37.291711 -6.091697
LeftArm 39.417425 13.136258 -65.816968
LeftForeArm 18.620138 -0.000000 25.333437
LeftHand -13.267471 -0.000000 -9.713154
LeftHandThumb1 -26.253704 0.000000 33.147579
Head 8.734729 0.279539 0.872431
1747
root 2.944398 37.028133 2.416393 1.385982 -1.965192 2.869839
RightUpLeg 6.822635 -6.264139 -4.313728
RightLeg -5.093029 -0.000000 0.000000
RightFoot -13.550236 -16.626747 15.815100
RightToeBase 14.359728 -0.000000 -0.000000
LeftUpLeg 4.075099 0.357833 0.008643
LeftLeg -1.768312 -0.000000 0.000000
LeftFoot -9.609067 13.240528 -17.178132
LeftToeBase 9.735635 -0.000000 -0.000000
Spine -0.880271 -3.616158 -0.899595
RightShoulder 3.140412 -16.276192 -9.226554
RightArm 17.647409 40.487179 81.971858
RightForeArm 94.666512 -0.000000 79.469607
RightHand 17.261477 -0.000000 -14.400998
RightHandThumb1 -24.326973 -0.000000 -32.862282
LeftShoulder -21.036504 37.438505 -6.039365
LeftArm 39.490235 13.154478 -65.676448
LeftForeArm 18.696742 -0.000000 25.422939
LeftHand -13.184015 -0.000000 -10.030806
LeftHandThumb1 -26.253704 0.000000 33.147579
Head 8.812754 0.364630 0.801485
1748
root 2.958637 37.028012 2.421556 1.303568 -2.017163 2.894231
RightUpLeg 6.900803 -6.276167 -4.374349
RightLeg -5.092791 -0.000000 0.000000
RightFoot -13.553474 -16.572748 15.829973
RightToeBase 14.410027 -0.000000 -0.000000
LeftUpLeg 4.176247 0.374202 -0.039115
LeftLeg -1.781054 -0.000000 0.000000
LeftFoot -9.622900 13.255181 -17.196006
LeftToeBase 9.784587 -0.000000 -0.000000
Spine -0.801323 -3.713604 -0.878778
RightShoulder 3.259146 -16.154821 -9.347339
RightArm 18.328379 41.408924 82.067524
RightForeArm 94.521280 0.000000 78.262973
RightHand 16.171827 -0.000000 -15.083445
RightHandThumb1 -24.326973 -0.000000 -32.862282
LeftShoulder -20.830879 37.547441 -5.949633
LeftArm 39.525411 13.242140 -65.462716
LeftForeArm 18.842799 -0.000000 25.565612
LeftHand -12.938058 -0.000000 -10.163689
LeftHandThumb1 -26.253704 0.000000 33.147579
Head 8.882990 0.339463 0.680907
1749
root 2.977436 37.026852 2.424786 1.189152 -2.163138 2.918206
RightUpLeg 6.971577 -6.192772 -4.445518
RightLeg -5.052315 -0.000000 0.000000
RightFoot -13.562590 -16.529848 15.777617
RightToeBase 14.437209 -0.000000 -0.000000
LeftUpLeg 4.323451 0.492468 -0.096691
LeftLeg -1.807998 -0.000000 0.000000
LeftFoot -9.637381 13.281039 -17.189411
LeftToeBase 9.780506 -0.000000 -0.000000
Spine -0.661233 -3.722465 -0.835420
RightShoulder 3.341077 -16.100531 -9.489983
RightArm 19.295279 42.342105 82.335642
RightForeArm 94.453171 -0.000000 76.924811
RightHand 15.702106 -0.000000 -15.729111
RightHandThumb1 -24.326973 -0.000000 -32.862282
LeftShoulder -20.598972 37.656443 -5.866433
LeftArm 39.569257 13.336472 -65.235197
LeftForeArm 18.894547 -0.000000 25.722517
LeftHand -12.931611 0.000000 -10.194216
LeftHandThumb1 -26.253704 0.000000 33.147579
Head 8.888437 0.410461 0.560083
1750
root 2.993105 37.025856 2.429573 1.055186 -2.295482 2.899923
RightUpLeg 7.073353 -6.082667 -4.470697
RightLeg -5.018142 -0.000000 0.000000
RightFoot -13.565451 -16.475018 15.851580
RightToeBase 14.380536 -0.000000 -0.000000
LeftUpLeg 4.491890 0.617292 -0.103938
LeftLeg -1.834161 -0.000000 0.000000
LeftFoot -9.640664 13.285688 -17.120770
LeftToeBase 9.752811 -0.000000 -0.000000
Spine -0.497121 -3.792304 -0.740102
RightShoulder 3.511136 -15.947594 -9.612769
RightArm 19.868551 43.013735 82.198044
RightForeArm 94.536171 -0.000000 75.808598
RightHand 14.850791 -0.000000 -15.980092
RightHandThumb1 -24.326973 -0.000000 -32.862282
LeftShoulder -20.403130 37.726562 -5.800232
LeftArm 39.570644 13.427604 -65.047866
LeftForeArm 18.798198 -0.000000 25.901212
LeftHand -12.876314 -0.000000 -10.168602
LeftHandThumb1 -26.253704 0.000000 33.147579
Head 8.895361 0.516347 0.402427
1751
root 3.007508 37.025207 2.434524 0.935051 -2.426873 2.877827
RightUpLeg 7.165969 -6.013368 -4.487108
RightLeg -4.999411 -0.000000 0.000000
RightFoot -13.560897 -16.437281 15.851166
RightToeBase 14.464400 -0.000000 -0.000000
LeftUpLeg 4.641189 0.758389 -0.104895
LeftLeg -1.849840 -0.000000 0.000000
LeftFoot -9.663027 13.272055 -17.093331
LeftToeBase 9.757147 -0.000000 -0.000000
Spine -0.356099 -3.879939 -0.638545
RightShoulder 3.727895 -15.738857 -9.737292
RightArm 20.217195 43.594338 81.755257
RightForeArm 94.805237 -0.000000 74.623929
RightHand 14.272155 0.000000 -16.035241
RightHandThumb1 -24.326973 -0.000000 -32.862282
LeftShoulder -20.164164 37.789465 -5.705767
LeftArm 39.508282 13.528145 -64.865422
LeftForeArm 18.835131 0.000000 26.121722
LeftHand -13.061949 -0.000000 -10.045241
LeftHandThumb1 -26.253704 0.000000 33.147579
Head 8.916518 0.639346 0.233705
1752
root 3.026058 37.024013 2.438380 0.813835 -2.591388 2.872801
RightUpLeg 7.249589 -5.934951 -4.531470
RightLeg -4.978303 -0.000000 0.000000
RightFoot -13.533793 -16.368571 15.820198
RightToeBase 14.463156 -0.000000 -0.000000
LeftUpLeg 4.803205 0.878876 -0.132521
LeftLeg -1.883765 -0.000000 0.000000
LeftFoot -9.692855 13.314845 -17.070365
LeftToeBase 9.773377 -0.000000 -0.000000
Spine -0.208219 -3.922632 -0.547284
RightShoulder 3.960203 -15.556554 -9.884256
RightArm 20.551092 44.140793 81.186929
RightForeArm 95.032782 0.000000 73.338630
RightHand 15.048443 -0.000000 -16.234121
RightHandThumb1 -24.326973 -0.000000 -32.862282
LeftShoulder -19.909149 37.922132 -5.618372
LeftArm 39.471201 13.542301 -64.751158
LeftForeArm 18.890942 -0.000000 26.363350
LeftHand -12.989492 -0.000000 -9.994708
LeftHandThumb1 -26.253704 0.000000 33.147579
Head 8.931368 0.767600 0.052059
1753
root 3.040084 37.022912 2.445039 0.666210 -2.730445 2.833600
RightUpLeg 7.369723 -5.857903 -4.537424
RightLeg -4.951088 -0.000000 0.000000
RightFoot -13.539307 -16.288553 15.892198
RightToeBase 14.521635 -0.000000 -0.000000
LeftUpLeg 4.999474 1.006185 -0.118035
LeftLeg -1.927308 -0.000000 0.000000
LeftFoot -9.727211 13.329002 -17.048526
LeftToeBase 9.771509 -0.000000 -0.000000
Spine -0.026898 -4.001810 -0.416508
RightShoulder 4.191904 -15.330159 -10.105818
RightArm 20.651322 44.404209 80.420505
RightForeArm 95.022558 0.000000 72.167395
RightHand 14.111059 -0.000000 -16.224517
RightHandThumb1 -24.326973 -0.000000 -32.862282
LeftShoulder -19.582528 38.058054 -5.474702
LeftArm 39.392670 13.552220 -64.670607
LeftForeArm 18.964966 -0.000000 26.606560
LeftHand -13.080268 -0.000000 -9.851528
LeftHandThumb1 -26.253704 0.000000 33.147579
Head 8.935353 0.921586 -0.144449
